<mxfile host="Electron" modified="2023-12-14T23:52:05.020Z" agent="Mozilla/5.0 (Windows NT 10.0; Win64; x64) AppleWebKit/537.36 (KHTML, like Gecko) draw.io/22.1.2 Chrome/114.0.5735.289 Electron/25.9.4 Safari/537.36" etag="1otS7OqnV_Mk54EvTvHt" version="22.1.2" type="device">
  <diagram id="BaOxwKHlPyZWeWgeZCKj" name="Page-1">
    <mxGraphModel dx="1247" dy="1896" grid="1" gridSize="2" guides="1" tooltips="1" connect="1" arrows="1" fold="1" page="1" pageScale="1" pageWidth="827" pageHeight="1169" background="none" math="0" shadow="0">
      <root>
        <mxCell id="0" />
        <mxCell id="1" parent="0" />
        <mxCell id="EuVTCKPE9AfQzZ4XW-F--8" value="&lt;p style=&quot;margin:0px;margin-top:4px;text-align:center;&quot;&gt;&lt;b&gt;GradeEntity&lt;/b&gt;&lt;/p&gt;&lt;hr size=&quot;1&quot;/&gt;&lt;p style=&quot;margin:0 0 0 4px;line-height:1.6;&quot;&gt; id:  Long &lt;br/&gt; coefficient:  Long &lt;br/&gt; description:  String &lt;br/&gt; grade:  Long &lt;br/&gt; title:  String &lt;br/&gt; type:  GradeType &lt;/p&gt;" style="verticalAlign=top;align=left;overflow=fill;fontSize=14;fontFamily=Helvetica;html=1;rounded=0;shadow=0;comic=0;labelBackgroundColor=none;strokeWidth=1;" vertex="1" parent="1">
          <mxGeometry x="215" y="-1092" width="151" height="183" as="geometry" />
        </mxCell>
        <mxCell id="EuVTCKPE9AfQzZ4XW-F--9" value="&lt;p style=&quot;margin:0px;margin-top:4px;text-align:center;&quot;&gt;&lt;b&gt;PlayerInfoEntity&lt;/b&gt;&lt;/p&gt;&lt;hr size=&quot;1&quot;/&gt;&lt;p style=&quot;margin:0 0 0 4px;line-height:1.6;&quot;&gt; id:  Long &lt;br/&gt; backLevel:  int &lt;br/&gt; chiefLevel:  int &lt;br/&gt; designLevel:  int &lt;br/&gt; docLevel:  int &lt;br/&gt; frontLevel:  int &lt;br/&gt; gitLevel:  int &lt;br/&gt; globalLevel:  int &lt;br/&gt; nickname:  String &lt;br/&gt; otherDesc:  String &lt;br/&gt; otherLevel:  int &lt;br/&gt; testLevel:  int &lt;/p&gt;" style="verticalAlign=top;align=left;overflow=fill;fontSize=14;fontFamily=Helvetica;html=1;rounded=0;shadow=0;comic=0;labelBackgroundColor=none;strokeWidth=1;" vertex="1" parent="1">
          <mxGeometry x="211" y="-404" width="158" height="327" as="geometry" />
        </mxCell>
        <mxCell id="EuVTCKPE9AfQzZ4XW-F--10" value="&lt;p style=&quot;margin:0px;margin-top:4px;text-align:center;&quot;&gt;&lt;b&gt;ProjectEntity&lt;/b&gt;&lt;/p&gt;&lt;hr size=&quot;1&quot;/&gt;&lt;p style=&quot;margin:0 0 0 4px;line-height:1.6;&quot;&gt; id:  Long &lt;br/&gt; description:  String &lt;br/&gt; name:  String &lt;/p&gt;" style="verticalAlign=top;align=left;overflow=fill;fontSize=14;fontFamily=Helvetica;html=1;rounded=0;shadow=0;comic=0;labelBackgroundColor=none;strokeWidth=1;" vertex="1" parent="1">
          <mxGeometry x="215" y="-620.5" width="151" height="120" as="geometry" />
        </mxCell>
        <mxCell id="EuVTCKPE9AfQzZ4XW-F--11" value="&lt;p style=&quot;margin:0px;margin-top:4px;text-align:center;&quot;&gt;&lt;b&gt;TeamEntity&lt;/b&gt;&lt;/p&gt;&lt;hr size=&quot;1&quot;/&gt;&lt;p style=&quot;margin:0 0 0 4px;line-height:1.6;&quot;&gt; id:  Long &lt;br/&gt; github:  String &lt;br/&gt; name:  String &lt;/p&gt;" style="verticalAlign=top;align=left;overflow=fill;fontSize=14;fontFamily=Helvetica;html=1;rounded=0;shadow=0;comic=0;labelBackgroundColor=none;strokeWidth=1;" vertex="1" parent="1">
          <mxGeometry x="229" y="-836" width="123" height="120" as="geometry" />
        </mxCell>
        <mxCell id="EuVTCKPE9AfQzZ4XW-F--12" value="&lt;p style=&quot;margin:0px;margin-top:4px;text-align:center;&quot;&gt;&lt;b&gt;UserEntity&lt;/b&gt;&lt;/p&gt;&lt;hr size=&quot;1&quot;/&gt;&lt;p style=&quot;margin:0 0 0 4px;line-height:1.6;&quot;&gt; id:  Long &lt;br/&gt; email:  String &lt;br/&gt; firstname:  String &lt;br/&gt; lastname:  String &lt;br/&gt; password:  String &lt;br/&gt; roles:  Set&amp;lt;UserRole&amp;gt; &lt;br/&gt; username:  String &lt;/p&gt;" style="verticalAlign=top;align=left;overflow=fill;fontSize=14;fontFamily=Helvetica;html=1;rounded=0;shadow=0;comic=0;labelBackgroundColor=none;strokeWidth=1;" vertex="1" parent="1">
          <mxGeometry x="445" y="-664" width="171" height="207" as="geometry" />
        </mxCell>
        <mxCell id="EuVTCKPE9AfQzZ4XW-F--13" value="" style="html=1;rounded=1;edgeStyle=orthogonalEdgeStyle;dashed=0;startArrow=none;endArrow=classic;endSize=12;strokeColor=#595959;exitX=0.500;exitY=1.000;exitDx=0;exitDy=0;entryX=0.500;entryY=0.000;entryDx=0;entryDy=0;" edge="1" parent="1" source="EuVTCKPE9AfQzZ4XW-F--8" target="EuVTCKPE9AfQzZ4XW-F--11">
          <mxGeometry width="50" height="50" relative="1" as="geometry">
            <Array as="points" />
          </mxGeometry>
        </mxCell>
        <mxCell id="EuVTCKPE9AfQzZ4XW-F--14" value="0..*" style="edgeLabel;resizable=0;html=1;align=left;verticalAlign=top;strokeColor=default;" vertex="1" connectable="0" parent="EuVTCKPE9AfQzZ4XW-F--13">
          <mxGeometry x="260" y="-910" as="geometry" />
        </mxCell>
        <mxCell id="EuVTCKPE9AfQzZ4XW-F--15" value="0..1" style="edgeLabel;resizable=0;html=1;align=left;verticalAlign=top;strokeColor=default;" vertex="1" connectable="0" parent="EuVTCKPE9AfQzZ4XW-F--13">
          <mxGeometry x="260" y="-859" as="geometry" />
        </mxCell>
        <mxCell id="EuVTCKPE9AfQzZ4XW-F--16" value="" style="html=1;rounded=1;edgeStyle=orthogonalEdgeStyle;dashed=0;startArrow=none;endArrow=classic;endSize=12;strokeColor=#595959;exitX=0.500;exitY=0.000;exitDx=0;exitDy=0;entryX=0.500;entryY=1.000;entryDx=0;entryDy=0;" edge="1" parent="1" source="EuVTCKPE9AfQzZ4XW-F--9" target="EuVTCKPE9AfQzZ4XW-F--10">
          <mxGeometry width="50" height="50" relative="1" as="geometry">
            <Array as="points" />
          </mxGeometry>
        </mxCell>
        <mxCell id="EuVTCKPE9AfQzZ4XW-F--17" value="0..*" style="edgeLabel;resizable=0;html=1;align=left;verticalAlign=top;strokeColor=default;" vertex="1" connectable="0" parent="EuVTCKPE9AfQzZ4XW-F--16">
          <mxGeometry x="262" y="-428" as="geometry" />
        </mxCell>
        <mxCell id="EuVTCKPE9AfQzZ4XW-F--18" value="0..*" style="edgeLabel;resizable=0;html=1;align=left;verticalAlign=top;strokeColor=default;" vertex="1" connectable="0" parent="EuVTCKPE9AfQzZ4XW-F--16">
          <mxGeometry x="262" y="-500" as="geometry" />
        </mxCell>
        <mxCell id="EuVTCKPE9AfQzZ4XW-F--19" value="preferences" style="edgeLabel;html=1;align=center;verticalAlign=middle;resizable=0;points=[];" vertex="1" connectable="0" parent="EuVTCKPE9AfQzZ4XW-F--16">
          <mxGeometry x="-0.0146" y="1" relative="1" as="geometry">
            <mxPoint x="38" as="offset" />
          </mxGeometry>
        </mxCell>
        <mxCell id="EuVTCKPE9AfQzZ4XW-F--20" value="" style="html=1;rounded=1;edgeStyle=orthogonalEdgeStyle;dashed=0;startArrow=none;endArrow=classic;endSize=12;strokeColor=#595959;exitX=1.000;exitY=0.500;exitDx=0;exitDy=0;entryX=0.000;entryY=0.500;entryDx=0;entryDy=0;" edge="1" parent="1" source="EuVTCKPE9AfQzZ4XW-F--10" target="EuVTCKPE9AfQzZ4XW-F--12">
          <mxGeometry width="50" height="50" relative="1" as="geometry">
            <Array as="points" />
          </mxGeometry>
        </mxCell>
        <mxCell id="EuVTCKPE9AfQzZ4XW-F--21" value="0..*" style="edgeLabel;resizable=0;html=1;align=left;verticalAlign=top;strokeColor=default;" vertex="1" connectable="0" parent="EuVTCKPE9AfQzZ4XW-F--20">
          <mxGeometry x="368" y="-588" as="geometry" />
        </mxCell>
        <mxCell id="EuVTCKPE9AfQzZ4XW-F--22" value="0..*" style="edgeLabel;resizable=0;html=1;align=left;verticalAlign=top;strokeColor=default;direction=south;" vertex="1" connectable="0" parent="EuVTCKPE9AfQzZ4XW-F--20">
          <mxGeometry x="422" y="-588" as="geometry" />
        </mxCell>
        <mxCell id="EuVTCKPE9AfQzZ4XW-F--23" value="" style="html=1;rounded=1;edgeStyle=orthogonalEdgeStyle;dashed=0;startArrow=none;endArrow=classic;endSize=12;strokeColor=#595959;exitX=0.541;exitY=1.000;exitDx=0;exitDy=0;entryX=0.533;entryY=0.000;entryDx=0;entryDy=0;" edge="1" parent="1">
          <mxGeometry width="50" height="50" relative="1" as="geometry">
            <Array as="points" />
            <mxPoint x="317.063" y="-716" as="sourcePoint" />
            <mxPoint x="317.00299999999993" y="-620.5" as="targetPoint" />
          </mxGeometry>
        </mxCell>
        <mxCell id="EuVTCKPE9AfQzZ4XW-F--24" value="0..*" style="edgeLabel;resizable=0;html=1;align=left;verticalAlign=top;strokeColor=default;" vertex="1" connectable="0" parent="EuVTCKPE9AfQzZ4XW-F--23">
          <mxGeometry x="329" y="-718" as="geometry" />
        </mxCell>
        <mxCell id="EuVTCKPE9AfQzZ4XW-F--25" value="0..*" style="edgeLabel;resizable=0;html=1;align=left;verticalAlign=top;strokeColor=default;" vertex="1" connectable="0" parent="EuVTCKPE9AfQzZ4XW-F--23">
          <mxGeometry x="326" y="-646" as="geometry" />
        </mxCell>
        <mxCell id="EuVTCKPE9AfQzZ4XW-F--26" value="preferences" style="edgeLabel;html=1;align=center;verticalAlign=middle;resizable=0;points=[];" vertex="1" connectable="0" parent="EuVTCKPE9AfQzZ4XW-F--23">
          <mxGeometry x="0.0309" y="1" relative="1" as="geometry">
            <mxPoint x="39" y="-2" as="offset" />
          </mxGeometry>
        </mxCell>
        <mxCell id="EuVTCKPE9AfQzZ4XW-F--27" value="" style="html=1;rounded=1;edgeStyle=orthogonalEdgeStyle;dashed=0;startArrow=none;endArrow=classic;endSize=12;strokeColor=#595959;exitX=0.459;exitY=1.000;exitDx=0;exitDy=0;entryX=0.467;entryY=0.000;entryDx=0;entryDy=0;" edge="1" parent="1">
          <mxGeometry width="50" height="50" relative="1" as="geometry">
            <Array as="points" />
            <mxPoint x="266.9969999999999" y="-716" as="sourcePoint" />
            <mxPoint x="267.05699999999996" y="-620.5" as="targetPoint" />
          </mxGeometry>
        </mxCell>
        <mxCell id="EuVTCKPE9AfQzZ4XW-F--28" value="0..*" style="edgeLabel;resizable=0;html=1;align=left;verticalAlign=top;strokeColor=default;" vertex="1" connectable="0" parent="EuVTCKPE9AfQzZ4XW-F--27">
          <mxGeometry x="239" y="-718" as="geometry" />
        </mxCell>
        <mxCell id="EuVTCKPE9AfQzZ4XW-F--29" value="0..1" style="edgeLabel;resizable=0;html=1;align=left;verticalAlign=top;strokeColor=default;" vertex="1" connectable="0" parent="EuVTCKPE9AfQzZ4XW-F--27">
          <mxGeometry x="236" y="-646" as="geometry" />
        </mxCell>
        <mxCell id="EuVTCKPE9AfQzZ4XW-F--30" value="team project" style="edgeLabel;html=1;align=center;verticalAlign=middle;resizable=0;points=[];" vertex="1" connectable="0" parent="EuVTCKPE9AfQzZ4XW-F--27">
          <mxGeometry x="-0.0743" y="1" relative="1" as="geometry">
            <mxPoint x="-41" as="offset" />
          </mxGeometry>
        </mxCell>
        <mxCell id="EuVTCKPE9AfQzZ4XW-F--31" value="" style="html=1;rounded=1;edgeStyle=orthogonalEdgeStyle;dashed=0;startArrow=none;endArrow=classic;endSize=12;strokeColor=#595959;exitX=0.999;exitY=0.643;exitDx=0;exitDy=0;exitPerimeter=0;" edge="1" parent="1" source="EuVTCKPE9AfQzZ4XW-F--11" target="EuVTCKPE9AfQzZ4XW-F--12">
          <mxGeometry width="50" height="50" relative="1" as="geometry">
            <Array as="points">
              <mxPoint x="497" y="-759" />
            </Array>
            <mxPoint x="357" y="-759" as="sourcePoint" />
          </mxGeometry>
        </mxCell>
        <mxCell id="EuVTCKPE9AfQzZ4XW-F--32" value="0..1" style="edgeLabel;resizable=0;html=1;align=left;verticalAlign=top;strokeColor=default;" vertex="1" connectable="0" parent="EuVTCKPE9AfQzZ4XW-F--31">
          <mxGeometry x="359" y="-757" as="geometry" />
        </mxCell>
        <mxCell id="EuVTCKPE9AfQzZ4XW-F--33" value="0..1" style="edgeLabel;resizable=0;html=1;align=left;verticalAlign=top;strokeColor=default;" vertex="1" connectable="0" parent="EuVTCKPE9AfQzZ4XW-F--31">
          <mxGeometry x="468" y="-686" as="geometry" />
        </mxCell>
        <mxCell id="EuVTCKPE9AfQzZ4XW-F--34" value="leader" style="edgeLabel;html=1;align=center;verticalAlign=middle;resizable=0;points=[];" vertex="1" connectable="0" parent="EuVTCKPE9AfQzZ4XW-F--31">
          <mxGeometry x="-0.136" relative="1" as="geometry">
            <mxPoint x="16" y="13" as="offset" />
          </mxGeometry>
        </mxCell>
        <mxCell id="EuVTCKPE9AfQzZ4XW-F--35" value="" style="html=1;rounded=1;edgeStyle=orthogonalEdgeStyle;dashed=0;startArrow=none;endArrow=classic;endSize=12;strokeColor=#595959;exitX=0.996;exitY=0.482;exitDx=0;exitDy=0;exitPerimeter=0;entryX=0.715;entryY=0;entryDx=0;entryDy=0;entryPerimeter=0;" edge="1" parent="1" target="EuVTCKPE9AfQzZ4XW-F--12">
          <mxGeometry width="50" height="50" relative="1" as="geometry">
            <Array as="points">
              <mxPoint x="567" y="-809" />
              <mxPoint x="567" y="-695" />
              <mxPoint x="567" y="-695" />
            </Array>
            <mxPoint x="351.99799999999993" y="-808.9599999999999" as="sourcePoint" />
            <mxPoint x="567" y="-669" as="targetPoint" />
          </mxGeometry>
        </mxCell>
        <mxCell id="EuVTCKPE9AfQzZ4XW-F--36" value="0..1" style="edgeLabel;resizable=0;html=1;align=left;verticalAlign=top;strokeColor=default;" vertex="1" connectable="0" parent="EuVTCKPE9AfQzZ4XW-F--35">
          <mxGeometry x="359" y="-837" as="geometry" />
        </mxCell>
        <mxCell id="EuVTCKPE9AfQzZ4XW-F--37" value="0..*" style="edgeLabel;resizable=0;html=1;align=left;verticalAlign=top;strokeColor=default;" vertex="1" connectable="0" parent="EuVTCKPE9AfQzZ4XW-F--35">
          <mxGeometry x="578" y="-686" as="geometry" />
        </mxCell>
        <mxCell id="EuVTCKPE9AfQzZ4XW-F--38" value="members" style="edgeLabel;html=1;align=center;verticalAlign=middle;resizable=0;points=[];" vertex="1" connectable="0" parent="EuVTCKPE9AfQzZ4XW-F--35">
          <mxGeometry x="0.0085" y="-2" relative="1" as="geometry">
            <mxPoint x="4" y="11" as="offset" />
          </mxGeometry>
        </mxCell>
        <mxCell id="EuVTCKPE9AfQzZ4XW-F--39" value="" style="html=1;rounded=1;edgeStyle=orthogonalEdgeStyle;dashed=0;startArrow=none;endArrow=classic;endSize=12;strokeColor=#595959;exitX=0.500;exitY=1.000;exitDx=0;exitDy=0;entryX=1.000;entryY=0.500;entryDx=0;entryDy=0;" edge="1" parent="1" source="EuVTCKPE9AfQzZ4XW-F--12" target="EuVTCKPE9AfQzZ4XW-F--9">
          <mxGeometry width="50" height="50" relative="1" as="geometry">
            <Array as="points">
              <mxPoint x="530" y="-241" />
            </Array>
          </mxGeometry>
        </mxCell>
        <mxCell id="EuVTCKPE9AfQzZ4XW-F--40" value="0..1" style="edgeLabel;resizable=0;html=1;align=left;verticalAlign=top;strokeColor=default;" vertex="1" connectable="0" parent="EuVTCKPE9AfQzZ4XW-F--39">
          <mxGeometry x="506" y="-456" as="geometry" />
        </mxCell>
        <mxCell id="EuVTCKPE9AfQzZ4XW-F--41" value="0..1" style="edgeLabel;resizable=0;html=1;align=left;verticalAlign=top;strokeColor=default;" vertex="1" connectable="0" parent="EuVTCKPE9AfQzZ4XW-F--39">
          <mxGeometry x="386" y="-267" as="geometry" />
        </mxCell>
      </root>
    </mxGraphModel>
  </diagram>
</mxfile>
